<mxfile host="app.diagrams.net" modified="2023-03-30T06:17:49.587Z" agent="Mozilla/5.0 (Windows NT 10.0; WOW64) AppleWebKit/537.36 (KHTML, like Gecko) Chrome/75.0.3770.100 Safari/537.36" etag="jNYQJORAgVraxNPDNao5" version="21.1.1" type="github">
  <diagram id="C5RBs43oDa-KdzZeNtuy" name="方案一">
    <mxGraphModel dx="885" dy="503" grid="1" gridSize="10" guides="1" tooltips="1" connect="1" arrows="1" fold="1" page="1" pageScale="1" pageWidth="827" pageHeight="1169" math="0" shadow="0">
      <root>
        <mxCell id="WIyWlLk6GJQsqaUBKTNV-0" />
        <mxCell id="WIyWlLk6GJQsqaUBKTNV-1" parent="WIyWlLk6GJQsqaUBKTNV-0" />
        <mxCell id="JnwnjsweZAxiL3DcM_pp-4" style="edgeStyle=orthogonalEdgeStyle;rounded=0;orthogonalLoop=1;jettySize=auto;html=1;entryX=0.5;entryY=0;entryDx=0;entryDy=0;" edge="1" parent="WIyWlLk6GJQsqaUBKTNV-1" source="JnwnjsweZAxiL3DcM_pp-0" target="JnwnjsweZAxiL3DcM_pp-1">
          <mxGeometry relative="1" as="geometry" />
        </mxCell>
        <mxCell id="JnwnjsweZAxiL3DcM_pp-5" value="实时同步" style="edgeLabel;html=1;align=center;verticalAlign=middle;resizable=0;points=[];" vertex="1" connectable="0" parent="JnwnjsweZAxiL3DcM_pp-4">
          <mxGeometry x="-0.257" relative="1" as="geometry">
            <mxPoint as="offset" />
          </mxGeometry>
        </mxCell>
        <mxCell id="JnwnjsweZAxiL3DcM_pp-0" value="4A" style="swimlane;" vertex="1" parent="WIyWlLk6GJQsqaUBKTNV-1">
          <mxGeometry x="110" y="40" width="200" height="160" as="geometry" />
        </mxCell>
        <mxCell id="JnwnjsweZAxiL3DcM_pp-2" value="账号" style="whiteSpace=wrap;html=1;" vertex="1" parent="JnwnjsweZAxiL3DcM_pp-0">
          <mxGeometry x="40" y="40" width="120" height="40" as="geometry" />
        </mxCell>
        <mxCell id="JnwnjsweZAxiL3DcM_pp-3" value="授权（账号+角色）" style="whiteSpace=wrap;html=1;" vertex="1" parent="JnwnjsweZAxiL3DcM_pp-0">
          <mxGeometry x="40" y="94" width="120" height="40" as="geometry" />
        </mxCell>
        <mxCell id="JnwnjsweZAxiL3DcM_pp-1" value="办公网" style="swimlane;" vertex="1" parent="WIyWlLk6GJQsqaUBKTNV-1">
          <mxGeometry x="110" y="350" width="200" height="200" as="geometry" />
        </mxCell>
        <mxCell id="JnwnjsweZAxiL3DcM_pp-6" value="账号&lt;br&gt;账号名+角色" style="whiteSpace=wrap;html=1;" vertex="1" parent="JnwnjsweZAxiL3DcM_pp-1">
          <mxGeometry x="40" y="70" width="120" height="60" as="geometry" />
        </mxCell>
      </root>
    </mxGraphModel>
  </diagram>
</mxfile>
